<svg width="16" height="16" viewBox="0 0 16 16" fill="none" xmlns="http://www.w3.org/2000/svg">
<path fill-rule="evenodd" clip-rule="evenodd" d="M0.342421 15.6572C0.57106 15.8858 0.799527 16 1.14251 16C1.48531 16 1.71394 15.8857 1.9426 15.6572L7.9998 9.59999L14.057 15.6572C14.2856 15.8858 14.6284 16 14.8571 16C15.0857 16 15.4285 15.8857 15.6572 15.6572C16.1143 15.2001 16.1143 14.5143 15.6572 14.0572L9.59997 8.00002L15.6572 1.94281C16.1143 1.4857 16.1143 0.799937 15.6572 0.34283C15.2001 -0.114277 14.5143 -0.114277 14.0572 0.34283L8 6.40004L1.9428 0.34283C1.4857 -0.114277 0.799936 -0.114277 0.34283 0.34283C-0.114277 0.799937 -0.114277 1.4857 0.34283 1.94281L6.40003 8.00002L0.34283 14.0572C-0.114277 14.5145 -0.114277 15.2001 0.34283 15.6574L0.342421 15.6572Z" fill="black"/>
</svg>
