<svg width="24" height="24" viewBox="0 0 24 24" fill="none" xmlns="http://www.w3.org/2000/svg">
<path d="M19.8683 11.0993C19.8288 10.892 19.6472 10.7422 19.4365 10.7422H12.5293C12.2864 10.7422 12.0898 10.9387 12.0898 11.1816V13.8184C12.0898 14.0613 12.2864 14.2578 12.5293 14.2578H16.0733C15.8524 14.7048 15.5481 15.0927 15.1908 15.419L17.6746 17.9028C19.1037 16.5412 20 14.6252 20 12.5C20 12.0288 19.9558 11.5572 19.8683 11.0993Z" fill="black"/>
<path d="M14.8715 9.30784C15.0457 9.43874 15.2916 9.42286 15.4461 9.26706L17.3215 7.39165C17.4086 7.30452 17.4554 7.18479 17.4498 7.06162C17.4443 6.93846 17.3876 6.82344 17.2932 6.74404C15.9512 5.61928 14.2488 5 12.5 5C9.92628 5 7.65258 6.30822 6.30847 8.29449L8.888 10.874C9.50341 9.48781 10.888 8.51562 12.5 8.51562C13.3622 8.51562 14.1823 8.78943 14.8715 9.30784Z" fill="black"/>
<path d="M16.9707 18.5004L14.4403 15.97C13.862 16.2956 13.2009 16.4844 12.5 16.4844C10.888 16.4844 9.50341 15.5122 8.888 14.126L6.30847 16.7055C7.65258 18.6918 9.92628 20 12.5 20C14.1776 20 15.7224 19.4375 16.9707 18.5004Z" fill="black"/>
<path d="M8.51563 12.4999C8.51563 12.2832 8.54595 12.0743 8.57961 11.8669L5.82207 9.10938C5.30035 10.1283 5 11.2787 5 12.4999C5 13.7211 5.30035 14.8714 5.8221 15.8903L8.57961 13.1328C8.54595 12.9254 8.51563 12.7166 8.51563 12.4999Z" fill="black"/>
</svg>
