<svg width="80" height="54" viewBox="0 0 80 54" fill="none" xmlns="http://www.w3.org/2000/svg">
<path d="M24.4812 0.104932L26.7695 13.6976H26.775C34.0145 13.696 39.8917 19.5784 39.9185 26.8528C39.9454 34.1273 34.1118 40.0533 26.8725 40.1057C19.6331 40.1581 13.7152 34.317 13.6379 27.043L0.122137 24.3896C0.0464122 25.2174 0 26.0544 0 26.9018C-0.000337206 41.7594 11.9858 53.8042 26.7719 53.8049C41.5581 53.8055 53.5452 41.7618 53.5463 26.9043C53.5473 12.0467 41.5617 0.00135559 26.7756 0C26.0024 0 25.2379 0.0405 24.4812 0.104932Z" fill="#4D92FB"/>
<path d="M52.9287 40.1026C45.6991 40.0269 39.8887 34.0963 39.9268 26.8314C39.9649 19.5666 45.837 13.6978 53.067 13.6986C53.1751 13.6986 53.2814 13.7041 53.3882 13.7072L55.674 0.12984C54.8154 0.0463857 53.9464 0.000976562 53.0664 0.000976562C42.2377 0.000976563 32.4752 6.55554 28.3312 16.6083C24.1873 26.661 26.4779 38.2323 34.1349 45.9263C41.792 53.6203 53.3076 55.922 63.312 51.758C73.3165 47.594 79.8395 37.7844 79.8395 26.9034C79.8395 26.0768 79.7968 25.2607 79.7241 24.4525L66.2029 27.1065C66.0903 34.3706 60.1583 40.1783 52.9287 40.1026Z" fill="#FFDF00"/>
<path d="M53.5493 26.903C53.5495 19.7679 50.7287 12.9249 45.7076 7.87954C40.6865 2.83421 33.8764 -0.000162753 26.7756 0C26.0024 0 25.2378 0.0405 24.4812 0.104932L26.7694 13.6976H26.7749C34.0299 13.7054 39.9092 19.6131 39.9169 26.903H53.5493Z" fill="#4D92FB"/>
</svg>
