<svg width="24" height="24" viewBox="0 0 24 24" fill="none" xmlns="http://www.w3.org/2000/svg">
<path d="M17 9.02539C18.3807 9.02539 19.5 10.1447 19.5 11.5254V14.7426C19.5 17.7802 17.0376 20.2426 14 20.2426H11C7.96243 20.2426 5.5 17.7802 5.5 14.7426V11.5254C5.5 10.1447 6.61929 9.02539 8 9.02539H17Z" stroke="black"/>
<path d="M8.64075 5.87699V5.87699C8.64075 4.84036 9.4811 4 10.5177 4H15.7191C15.8563 4 15.9675 4.1112 15.9675 4.24836V8.52583" stroke="black" stroke-linecap="round"/>
<mask id="path-3-inside-1_3_901" fill="white">
<path fill-rule="evenodd" clip-rule="evenodd" d="M14.5 14.9495C14.814 14.5316 15 14.0121 15 13.4492C15 12.0685 13.8807 10.9492 12.5 10.9492C11.1193 10.9492 10 12.0685 10 13.4492C10 14.0121 10.186 14.5316 10.5 14.9495V16.4492C10.5 17.0015 10.9477 17.4492 11.5 17.4492H13.5C14.0523 17.4492 14.5 17.0015 14.5 16.4492V14.9495Z"/>
</mask>
<path d="M14.5 14.9495L13.7005 14.3488L13.5 14.6157V14.9495H14.5ZM10.5 14.9495H11.5V14.6157L11.2995 14.3488L10.5 14.9495ZM14 13.4492C14 13.7881 13.8888 14.0982 13.7005 14.3488L15.2995 15.5501C15.7391 14.965 16 14.2361 16 13.4492H14ZM12.5 11.9492C13.3284 11.9492 14 12.6208 14 13.4492H16C16 11.5162 14.433 9.94922 12.5 9.94922V11.9492ZM11 13.4492C11 12.6208 11.6716 11.9492 12.5 11.9492V9.94922C10.567 9.94922 9 11.5162 9 13.4492H11ZM11.2995 14.3488C11.1112 14.0982 11 13.7881 11 13.4492H9C9 14.2361 9.2609 14.965 9.70051 15.5501L11.2995 14.3488ZM11.5 16.4492V14.9495H9.5V16.4492H11.5ZM11.5 16.4492H9.5C9.5 17.5538 10.3954 18.4492 11.5 18.4492V16.4492ZM13.5 16.4492H11.5V18.4492H13.5V16.4492ZM13.5 16.4492V18.4492C14.6046 18.4492 15.5 17.5538 15.5 16.4492H13.5ZM13.5 14.9495V16.4492H15.5V14.9495H13.5Z" fill="black" mask="url(#path-3-inside-1_3_901)"/>
</svg>
