<svg width="21" height="16" viewBox="0 0 21 16" fill="none" xmlns="http://www.w3.org/2000/svg">
<path d="M0.807626 0C0.361409 0 0 0.377119 0 0.842045C0 1.30728 0.361705 1.68409 0.807626 1.68409H20.1924C20.6386 1.68409 21 1.30697 21 0.842045C21 0.376811 20.6383 0 20.1924 0H0.807626ZM0.807626 7.15796C0.361409 7.15796 0 7.53507 0 8C0 8.46523 0.361705 8.84205 0.807626 8.84205H20.1924C20.6386 8.84205 21 8.46492 21 8C21 7.53476 20.6383 7.15796 20.1924 7.15796H0.807626ZM0.807626 14.3159C0.361409 14.3159 0 14.693 0 15.158C0 15.6232 0.361705 16 0.807626 16H20.1924C20.6386 16 21 15.6229 21 15.158C21 14.6927 20.6383 14.3159 20.1924 14.3159H0.807626Z" fill="black"/>
</svg>
